<svg id="svg" version="1.1" xmlns="http://www.w3.org/2000/svg" xmlns:xlink="http://www.w3.org/1999/xlink" width="400" height="400" viewBox="0, 0, 400,400"><g id="svgg"><path id="path0" d="M119.922 42.016 C 101.856 45.910,95.338 68.866,108.549 82.076 C 123.528 97.055,148.519 86.567,148.535 65.296 C 148.547 49.971,134.822 38.804,119.922 42.016 M135.547 48.743 C 138.636 50.674,139.540 51.573,139.020 52.199 C 138.737 52.540,138.687 53.976,138.869 56.530 L 139.141 60.352 141.499 62.760 C 142.796 64.085,144.066 65.088,144.322 64.990 C 145.213 64.649,143.956 72.097,142.879 73.541 C 142.606 73.907,140.736 74.872,138.724 75.684 L 135.065 77.162 134.188 79.582 C 132.794 83.433,132.430 83.808,129.417 84.499 C 124.188 85.699,123.249 85.558,121.487 83.309 C 118.466 79.452,116.614 78.656,111.122 78.854 C 110.036 78.894,107.409 75.026,105.872 71.125 C 105.211 69.448,105.166 69.091,105.638 69.272 C 106.288 69.521,110.559 63.963,110.532 62.903 C 110.500 61.640,108.691 56.161,108.208 55.862 C 107.511 55.432,108.749 53.483,111.207 51.138 C 114.560 47.940,116.016 47.058,116.016 48.224 C 116.016 48.775,116.910 49.249,121.554 51.160 L 123.772 52.073 126.968 49.104 L 130.164 46.135 131.781 46.768 C 132.671 47.116,134.365 48.005,135.547 48.743 M120.695 60.751 L 117.009 64.452 119.049 68.554 L 121.089 72.656 122.556 72.655 C 123.921 72.654,130.955 71.890,131.136 71.723 C 131.180 71.682,131.674 69.809,132.232 67.562 C 132.791 65.315,133.332 63.188,133.434 62.835 C 133.572 62.359,132.787 61.743,130.384 60.442 C 128.604 59.478,126.526 58.320,125.764 57.869 L 124.380 57.049 120.695 60.751 M170.431 59.407 C 169.454 60.033,169.014 60.116,168.406 59.791 C 166.910 58.990,165.321 59.289,164.391 60.547 C 163.915 61.191,163.246 61.719,162.904 61.719 C 158.592 61.719,160.370 66.335,165.457 68.346 C 168.853 69.689,171.394 71.794,177.259 78.125 L 182.506 83.789 182.277 93.164 C 182.066 101.834,181.085 117.765,180.678 119.136 C 180.581 119.461,180.314 122.627,180.084 126.172 C 179.731 131.604,179.513 132.964,178.695 134.825 C 176.821 139.089,176.678 146.293,178.356 151.957 C 179.718 156.555,180.489 157.124,187.579 158.762 C 191.402 159.645,199.042 162.175,199.562 162.729 C 200.372 163.594,184.619 160.790,179.999 159.246 L 176.057 157.930 176.319 163.409 C 176.800 173.489,178.201 189.188,179.149 195.117 C 180.003 200.459,176.911 191.617,175.728 185.334 L 174.898 180.927 173.244 180.510 C 172.334 180.281,170.343 179.978,168.820 179.836 C 166.340 179.605,165.813 179.399,163.787 177.865 C 154.344 170.714,139.167 166.876,132.085 169.847 C 130.471 170.525,129.866 170.623,129.448 170.276 C 128.498 169.487,128.887 168.973,131.301 167.829 C 135.142 166.008,135.643 164.540,134.685 157.915 C 134.259 154.968,134.281 154.531,134.920 153.346 C 135.926 151.478,135.526 150.778,132.213 148.611 C 130.058 147.201,129.073 146.274,128.508 145.123 C 127.755 143.587,124.632 140.047,123.780 139.763 C 123.521 139.676,123.756 139.018,124.370 138.114 C 126.520 134.946,123.885 129.653,121.133 131.613 C 120.529 132.043,119.174 132.594,118.123 132.837 C 112.400 134.160,110.883 134.643,108.144 136.014 C 93.458 143.364,92.127 152.876,104.018 165.495 C 107.467 169.155,107.825 169.686,108.596 172.274 L 109.432 175.082 108.525 175.679 C 104.637 178.237,98.495 185.972,92.383 196.004 C 90.449 199.178,87.967 202.980,86.866 204.453 C 84.792 207.230,84.670 207.836,85.828 209.633 C 86.330 210.411,86.040 211.073,82.059 218.241 C 77.079 227.205,75.651 231.080,72.100 245.259 C 69.660 255.000,69.725 254.868,64.861 259.961 C 61.143 263.855,55.698 271.102,55.012 273.070 C 53.495 277.419,62.490 274.567,69.992 268.319 C 72.355 266.351,72.392 266.367,72.065 269.188 C 71.760 271.816,72.027 272.278,73.670 271.964 C 75.914 271.535,78.481 264.690,78.905 258.008 L 79.202 253.320 81.515 249.609 C 87.882 239.396,91.774 231.800,92.704 227.776 C 93.130 225.930,93.669 224.944,95.245 223.124 C 98.173 219.745,98.353 219.628,99.063 220.641 C 100.116 222.144,100.870 221.596,108.226 213.996 L 115.474 206.505 117.601 208.061 C 124.935 213.428,134.944 217.773,151.563 222.801 C 160.395 225.474,166.109 227.394,170.941 229.314 C 176.413 231.488,178.268 230.703,177.386 226.589 C 176.636 223.094,176.697 222.924,178.418 223.680 C 195.109 231.016,211.648 227.290,220.117 214.287 C 221.790 211.719,222.490 211.032,225.000 209.496 C 229.904 206.496,243.354 197.479,243.357 197.189 C 243.358 197.040,242.234 195.327,240.858 193.383 C 238.301 189.770,234.223 182.291,234.446 181.625 C 234.514 181.421,236.240 183.460,238.281 186.155 L 241.992 191.055 246.875 186.023 C 251.734 181.015,254.082 179.011,254.419 179.583 C 254.516 179.748,254.721 180.498,254.874 181.250 C 256.026 186.909,262.909 193.725,272.113 198.322 C 277.494 201.010,281.978 204.295,285.974 208.477 L 288.935 211.577 289.182 215.847 C 289.571 222.576,290.994 225.375,294.347 226.004 C 295.093 226.144,295.703 226.411,295.703 226.597 C 295.703 228.331,298.915 228.283,299.819 226.535 C 300.493 225.231,301.492 225.071,302.959 226.032 C 304.301 226.911,305.691 226.267,306.057 224.598 C 306.551 222.350,318.851 219.337,321.214 220.885 C 322.502 221.729,323.733 221.250,324.046 219.784 C 324.471 217.798,324.914 217.493,326.967 217.775 C 329.011 218.057,330.078 217.413,330.078 215.897 C 330.078 215.374,330.905 214.289,332.257 213.042 C 336.877 208.776,334.901 207.247,324.677 207.175 C 316.587 207.118,314.318 206.708,308.149 204.190 C 306.352 203.456,304.004 202.626,302.930 202.344 C 298.845 201.273,291.348 194.304,282.549 183.398 C 277.590 177.252,274.361 173.922,271.575 172.082 C 270.487 171.364,269.650 170.395,269.163 169.295 C 264.616 159.016,257.753 155.082,249.109 157.800 C 245.724 158.864,237.608 162.531,234.620 164.346 C 232.726 165.497,232.188 165.667,231.603 165.302 C 230.011 164.307,217.056 171.905,207.479 179.450 C 204.825 181.541,202.583 183.182,202.497 183.096 C 201.925 182.524,207.221 175.943,209.861 173.944 C 210.880 173.174,210.916 173.038,210.576 171.234 C 210.380 170.190,210.016 166.875,209.768 163.867 C 209.251 157.600,209.299 157.690,206.331 157.425 L 204.102 157.227 202.487 154.006 C 198.184 145.426,197.267 139.741,199.347 134.542 C 202.958 125.518,203.174 118.874,200.168 109.287 C 198.802 104.930,198.470 102.467,197.685 90.854 L 197.318 85.420 200.032 82.261 C 204.591 76.954,205.562 74.125,203.744 71.448 C 203.224 70.684,202.741 69.563,202.669 68.956 C 202.459 67.171,201.556 66.923,199.711 68.143 C 197.831 69.387,196.695 69.081,196.022 67.149 C 195.403 65.375,194.295 64.974,192.888 66.014 C 190.533 67.755,180.132 63.740,179.369 60.795 C 178.967 59.241,177.682 58.801,176.428 59.787 C 175.196 60.757,175.073 60.745,174.149 59.570 C 173.220 58.389,172.097 58.340,170.431 59.407 M215.723 288.081 C 211.316 289.316,208.231 291.862,206.486 295.703 C 203.593 302.072,203.850 333.190,206.846 339.314 C 211.264 348.344,229.245 349.497,235.557 341.154 C 238.380 337.424,238.477 336.608,238.477 316.602 L 238.477 298.633 237.534 296.292 C 234.721 289.306,224.751 285.552,215.723 288.081 M53.516 317.188 L 53.516 346.094 59.180 346.094 L 64.844 346.094 64.844 333.984 L 64.844 321.875 71.289 321.875 L 77.734 321.875 77.734 316.992 L 77.734 312.109 71.306 312.109 L 64.879 312.109 64.764 305.273 L 64.648 298.437 72.168 298.437 L 79.688 298.438 79.688 293.359 L 79.688 288.281 66.602 288.281 L 53.516 288.281 53.516 317.188 M86.340 309.277 C 86.355 335.291,86.634 337.713,90.075 341.733 C 95.625 348.217,110.344 348.343,115.968 341.953 C 119.312 338.155,119.300 338.257,119.444 311.621 L 119.571 288.281 113.930 288.281 L 108.288 288.281 108.229 310.254 C 108.158 336.621,108.162 336.603,102.856 336.486 C 98.197 336.383,98.047 335.546,98.047 309.593 L 98.047 288.281 92.188 288.281 L 86.328 288.281 86.340 309.277 M125.781 293.359 L 125.781 298.438 130.469 298.438 L 135.156 298.438 135.156 322.266 L 135.156 346.094 141.016 346.094 L 146.875 346.094 146.875 322.266 L 146.875 298.438 151.563 298.438 L 156.250 298.438 156.250 293.359 L 156.250 288.281 141.016 288.281 L 125.781 288.281 125.781 293.359 M162.500 317.188 L 162.500 346.094 167.794 346.094 L 173.087 346.094 172.969 330.078 C 172.905 321.269,172.983 314.062,173.145 314.062 C 173.306 314.062,173.438 314.263,173.438 314.507 C 173.438 314.987,180.138 330.974,184.261 340.332 L 186.800 346.094 191.688 346.094 L 196.575 346.094 196.432 317.188 L 196.289 288.281 190.884 288.281 L 185.479 288.281 185.610 304.082 C 185.683 312.773,185.632 319.760,185.497 319.610 C 185.363 319.459,184.943 318.382,184.564 317.217 C 183.719 314.612,182.047 310.538,177.259 299.414 C 175.225 294.688,173.336 290.249,173.061 289.551 L 172.561 288.281 167.531 288.281 L 162.500 288.281 162.500 317.188 M247.007 295.605 C 247.148 299.634,247.264 312.642,247.265 324.512 L 247.266 346.094 252.930 346.094 L 258.594 346.094 258.594 335.156 L 258.594 324.219 260.484 324.219 L 262.374 324.219 263.182 327.051 C 263.626 328.608,264.953 332.977,266.130 336.759 C 267.308 340.541,268.394 344.188,268.542 344.864 L 268.812 346.094 274.667 346.094 L 280.521 346.094 280.268 345.215 C 279.411 342.240,276.942 334.821,274.918 329.142 C 272.760 323.086,272.623 322.511,273.251 322.159 C 278.422 319.265,280.691 312.221,279.709 302.103 C 278.576 290.433,275.034 288.281,256.950 288.281 L 246.751 288.281 247.007 295.605 M284.498 293.356 L 284.570 298.431 289.355 298.434 L 294.141 298.438 294.141 322.266 L 294.141 346.094 300.000 346.094 L 305.859 346.094 305.859 322.266 L 305.859 298.438 310.525 298.438 L 315.191 298.438 315.310 293.359 L 315.430 288.280 299.928 288.281 L 284.426 288.281 284.498 293.356 M321.484 317.188 L 321.484 346.094 334.766 346.094 L 348.047 346.094 348.047 341.016 L 348.047 335.938 340.430 335.938 L 332.813 335.938 332.813 328.906 L 332.813 321.875 339.258 321.875 L 345.703 321.875 345.703 316.992 L 345.703 312.109 339.258 312.109 L 332.813 312.109 332.813 305.273 L 332.813 298.438 340.234 298.438 L 347.656 298.438 347.656 293.359 L 347.656 288.281 334.570 288.281 L 321.484 288.281 321.484 317.188 M225.194 298.553 C 227.219 300.579,227.339 301.598,227.342 316.824 C 227.343 328.108,227.233 331.092,226.751 332.712 C 225.100 338.273,218.250 338.243,216.595 332.667 C 215.925 330.414,215.754 304.530,216.390 301.788 C 217.404 297.413,222.267 295.627,225.194 298.553 M266.200 298.821 C 268.088 299.988,268.934 302.858,268.642 307.112 C 268.265 312.608,266.554 314.436,261.480 314.761 L 258.594 314.946 258.594 306.246 L 258.594 297.545 261.710 297.758 C 263.949 297.912,265.212 298.211,266.200 298.821 " stroke="none" fill="#c02015" fill-rule="evenodd"></path><path id="path1" d="M0.000 200.000 L 0.000 400.000 200.000 400.000 L 400.000 400.000 400.000 200.000 L 400.000 0.000 200.000 0.000 L 0.000 0.000 0.000 200.000 M130.680 41.998 C 148.239 46.462,154.722 68.503,142.337 81.631 C 124.647 100.384,94.170 81.499,102.746 57.098 C 106.704 45.838,119.204 39.081,130.680 41.998 M126.789 49.389 L 123.695 52.257 120.734 50.980 C 115.723 48.818,115.667 48.784,115.930 48.097 C 116.139 47.554,116.009 47.568,115.020 48.197 C 111.061 50.718,106.558 55.859,108.308 55.859 C 108.692 55.859,110.356 60.820,110.697 62.982 C 110.782 63.523,106.445 69.503,105.957 69.517 C 105.282 69.537,105.302 69.618,106.784 72.780 C 108.703 76.874,110.102 78.621,111.526 78.704 C 112.169 78.741,113.948 78.910,115.480 79.080 L 118.264 79.388 120.921 82.322 L 123.578 85.256 125.949 85.027 C 131.693 84.472,133.321 83.160,134.574 78.074 C 134.791 77.193,135.396 76.828,138.800 75.529 L 142.773 74.012 143.407 72.040 C 144.183 69.624,144.556 64.859,143.950 65.091 C 143.721 65.179,142.426 64.014,141.073 62.503 L 138.613 59.755 138.712 55.444 L 138.812 51.134 136.886 49.741 C 134.904 48.306,131.205 46.470,130.360 46.502 C 130.098 46.512,128.490 47.811,126.789 49.389 M129.102 59.536 C 131.465 60.806,133.468 61.901,133.553 61.969 C 133.762 62.137,131.704 70.766,131.302 71.407 C 130.999 71.891,128.906 72.276,123.622 72.823 L 121.266 73.066 119.033 68.816 L 116.799 64.566 120.606 60.804 C 122.701 58.735,124.502 57.084,124.609 57.134 C 124.717 57.185,126.738 58.266,129.102 59.536 M174.387 59.584 L 175.036 60.574 176.170 59.767 C 177.725 58.660,179.250 59.045,179.566 60.624 C 179.918 62.382,184.303 64.939,189.169 66.220 L 191.814 66.917 192.760 66.028 C 194.123 64.748,195.409 65.179,196.195 67.179 C 196.922 69.030,198.150 69.275,199.968 67.931 C 201.545 66.765,202.475 67.071,202.764 68.851 C 202.895 69.653,203.298 70.638,203.661 71.039 C 206.014 73.638,204.752 77.307,199.547 83.001 L 197.509 85.232 197.998 92.909 C 198.631 102.831,199.012 105.492,200.377 109.530 C 203.315 118.221,203.001 125.853,199.335 134.909 C 197.374 139.752,198.288 145.231,202.438 153.516 L 204.102 156.836 206.199 157.092 C 209.201 157.458,209.441 157.836,209.809 162.769 C 209.983 165.092,210.315 168.341,210.548 169.990 L 210.972 172.989 207.902 176.045 C 206.213 177.726,204.273 180.024,203.591 181.152 C 202.330 183.237,202.405 183.865,203.739 182.391 C 208.206 177.455,229.868 163.925,231.343 165.149 C 231.758 165.494,233.303 164.875,238.302 162.363 C 252.312 155.322,257.853 154.961,263.477 160.726 C 265.591 162.893,269.353 168.569,269.794 170.258 C 269.890 170.624,270.705 171.391,271.605 171.961 C 273.989 173.471,278.610 178.304,283.846 184.766 C 292.129 194.987,298.882 201.141,302.994 202.214 C 304.233 202.538,306.864 203.476,308.841 204.299 C 313.816 206.369,317.976 207.162,323.047 207.004 C 334.609 206.645,337.483 208.662,332.062 213.331 C 330.615 214.577,330.078 215.317,330.078 216.065 C 330.078 217.561,329.193 218.114,327.232 217.845 C 325.161 217.562,324.773 217.799,324.139 219.733 C 323.548 221.537,322.653 221.870,320.912 220.933 C 319.784 220.326,319.436 220.351,314.061 221.441 C 306.923 222.889,306.627 223.006,306.096 224.601 C 305.452 226.539,304.678 226.853,302.720 225.970 L 301.076 225.229 300.343 226.189 C 298.963 227.995,298.796 228.125,297.852 228.125 C 297.332 228.125,296.504 227.707,296.012 227.197 C 295.520 226.687,294.647 226.159,294.073 226.025 C 290.939 225.293,289.464 222.364,289.113 216.174 C 288.870 211.894,288.849 211.819,287.406 210.058 C 284.196 206.142,277.811 201.240,272.811 198.853 C 263.768 194.536,257.192 188.345,254.997 182.083 C 254.572 180.873,254.158 179.814,254.076 179.730 C 253.777 179.425,250.104 182.705,246.084 186.867 L 241.972 191.124 238.307 186.382 C 236.291 183.774,234.591 181.641,234.530 181.641 C 233.901 181.641,238.475 189.882,241.206 193.669 C 242.390 195.311,243.359 196.856,243.359 197.101 C 243.359 197.568,232.323 205.143,225.586 209.301 C 222.074 211.468,221.543 211.951,220.327 214.088 C 213.186 226.636,194.977 231.166,179.535 224.238 L 176.853 223.035 177.118 224.310 C 178.642 231.632,177.816 232.037,168.488 228.543 C 165.087 227.268,159.316 225.324,155.664 224.221 C 136.015 218.290,125.210 213.760,117.578 208.254 L 115.430 206.704 108.266 214.094 C 100.917 221.677,100.170 222.202,99.021 220.605 L 98.388 219.727 97.004 221.289 C 93.848 224.853,92.969 226.106,92.969 227.042 C 92.969 229.436,89.514 236.535,83.408 246.690 L 79.409 253.341 79.120 257.802 C 78.557 266.483,74.573 274.349,72.027 271.804 C 71.557 271.334,71.541 270.907,71.932 269.216 C 72.553 266.525,72.259 266.391,70.037 268.353 C 64.893 272.891,56.730 276.495,55.156 274.922 C 53.819 273.584,57.845 267.282,64.465 260.352 C 69.462 255.119,69.573 254.899,71.829 245.703 C 75.422 231.060,77.411 226.000,84.490 213.499 C 86.041 210.761,86.188 210.302,85.742 209.593 C 84.516 207.641,84.623 207.173,87.016 204.012 C 88.280 202.343,90.321 199.257,91.553 197.155 C 97.062 187.748,102.193 180.986,106.882 176.950 L 109.271 174.894 108.605 172.701 C 107.608 169.420,106.964 168.424,103.902 165.430 C 92.758 154.533,93.424 144.459,105.771 137.138 C 109.012 135.216,112.736 133.793,116.042 133.213 C 117.424 132.970,119.476 132.313,120.603 131.753 C 124.152 129.988,126.920 134.347,124.618 138.073 L 123.845 139.323 125.887 141.560 C 127.011 142.790,128.293 144.439,128.738 145.224 C 129.222 146.078,130.712 147.454,132.449 148.649 C 135.621 150.832,135.982 151.540,134.946 153.545 C 134.276 154.841,134.266 154.626,135.325 162.060 C 135.688 164.609,133.952 166.935,130.563 168.441 C 127.817 169.661,128.833 171.029,131.658 169.915 C 139.756 166.723,152.731 169.842,163.503 177.570 C 165.968 179.339,166.727 179.688,168.116 179.688 C 170.127 179.688,174.290 180.413,174.735 180.841 C 174.911 181.011,175.466 183.238,175.967 185.790 C 176.893 190.506,178.298 195.190,178.998 195.898 C 179.254 196.157,179.309 196.025,179.161 195.508 C 178.272 192.401,175.369 158.486,175.943 157.911 C 176.031 157.823,177.373 158.210,178.926 158.770 C 182.338 160.000,187.005 161.053,192.773 161.894 C 195.137 162.238,197.585 162.605,198.214 162.709 C 201.952 163.329,193.111 160.184,187.217 158.797 C 180.953 157.324,179.932 156.752,178.969 154.180 C 176.600 147.847,176.337 140.186,178.330 135.510 C 179.168 133.544,179.465 132.045,179.717 128.516 C 179.894 126.045,180.311 121.299,180.643 117.969 C 181.412 110.263,181.958 101.553,182.285 91.789 L 182.542 84.090 177.547 78.585 C 171.991 72.462,169.204 70.078,166.016 68.721 C 160.341 66.306,158.257 62.755,161.998 61.875 C 162.596 61.735,163.649 61.088,164.338 60.437 C 165.664 59.186,167.510 58.899,168.572 59.780 C 169.001 60.136,169.357 60.059,170.205 59.427 C 171.751 58.274,173.573 58.342,174.387 59.584 M228.582 288.132 C 237.600 290.768,238.851 294.210,238.860 316.406 C 238.871 341.270,237.118 345.076,224.966 346.572 C 215.029 347.796,208.545 344.633,205.753 337.200 C 204.601 334.134,204.205 303.567,205.259 299.024 C 207.480 289.448,217.337 284.845,228.582 288.132 M79.688 293.359 L 79.688 298.438 72.266 298.438 L 64.844 298.438 64.844 305.273 L 64.844 312.109 71.289 312.109 L 77.734 312.109 77.734 316.992 L 77.734 321.875 71.289 321.875 L 64.844 321.875 64.844 333.984 L 64.844 346.094 58.921 346.094 L 52.998 346.094 53.255 328.613 C 53.397 318.999,53.513 305.991,53.514 299.707 L 53.516 288.281 66.602 288.281 L 79.688 288.281 79.688 293.359 M98.126 310.254 C 98.265 336.465,98.238 336.328,103.182 336.328 C 108.089 336.328,108.203 335.718,108.203 309.356 L 108.203 288.281 113.965 288.281 L 119.727 288.281 119.661 310.397 C 119.590 334.501,119.461 336.252,117.485 339.960 C 112.303 349.681,92.962 349.128,88.259 339.123 C 86.454 335.284,86.342 333.601,86.335 310.254 L 86.328 288.281 92.169 288.281 L 98.011 288.281 98.126 310.254 M156.641 293.359 L 156.641 298.438 151.758 298.438 L 146.875 298.438 146.875 322.266 L 146.875 346.094 141.016 346.094 L 135.156 346.094 135.156 322.266 L 135.156 298.438 130.273 298.438 L 125.391 298.438 125.391 293.359 L 125.391 288.281 141.016 288.281 L 156.641 288.281 156.641 293.359 M177.692 300.195 C 180.454 306.641,183.297 313.496,184.009 315.430 C 184.721 317.363,185.402 319.069,185.523 319.219 C 185.643 319.370,185.692 312.470,185.632 303.887 L 185.521 288.281 191.003 288.281 L 196.484 288.281 196.484 317.188 L 196.484 346.094 191.585 346.094 L 186.686 346.094 185.500 343.457 C 184.148 340.453,174.649 318.192,173.708 315.820 C 173.125 314.353,173.086 315.225,173.067 330.176 L 173.047 346.094 167.522 346.094 L 161.996 346.094 162.245 343.457 C 162.382 342.007,162.496 328.994,162.497 314.539 L 162.500 288.259 167.585 288.368 L 172.670 288.477 177.692 300.195 M270.594 288.871 C 277.490 290.919,279.865 295.318,279.873 306.055 C 279.878 314.765,278.535 318.567,274.402 321.535 L 272.710 322.750 273.901 325.926 C 274.556 327.672,276.205 332.441,277.566 336.523 C 278.927 340.605,280.210 344.429,280.416 345.020 L 280.792 346.094 274.771 346.094 C 271.459 346.094,268.750 346.013,268.750 345.914 C 268.750 345.594,264.841 332.725,263.653 329.132 C 263.019 327.215,262.500 325.325,262.500 324.932 C 262.500 324.336,262.178 324.219,260.547 324.219 L 258.594 324.219 258.594 335.156 L 258.594 346.094 252.930 346.094 L 247.266 346.094 247.265 329.785 C 247.265 320.815,247.148 307.808,247.007 300.879 L 246.749 288.281 257.678 288.281 C 266.286 288.281,269.030 288.406,270.594 288.871 M315.625 293.359 L 315.625 298.438 310.742 298.438 L 305.859 298.438 305.859 322.266 L 305.859 346.094 300.000 346.094 L 294.141 346.094 294.141 322.266 L 294.141 298.438 289.258 298.438 L 284.375 298.438 284.375 293.359 L 284.375 288.281 300.000 288.281 L 315.625 288.281 315.625 293.359 M347.656 293.359 L 347.656 298.438 340.234 298.438 L 332.813 298.438 332.813 305.273 L 332.813 312.109 339.258 312.109 L 345.703 312.109 345.703 316.992 L 345.703 321.875 339.258 321.875 L 332.813 321.875 332.813 328.910 L 332.813 335.944 340.527 335.880 L 348.242 335.816 348.351 340.955 L 348.460 346.094 334.972 346.094 L 321.484 346.094 321.484 317.188 L 321.484 288.281 334.570 288.281 L 347.656 288.281 347.656 293.359 M219.222 297.855 C 216.376 299.091,216.211 300.143,216.211 316.992 C 216.211 331.479,216.232 331.881,217.074 333.705 C 218.903 337.667,224.413 337.786,226.176 333.901 C 227.314 331.394,227.366 302.139,226.236 299.994 C 224.966 297.580,221.962 296.665,219.222 297.855 M258.594 306.250 L 258.594 314.453 261.466 314.453 C 266.690 314.453,268.358 312.442,268.359 306.140 C 268.360 299.653,267.026 298.051,261.621 298.048 L 258.594 298.047 258.594 306.250 " stroke="none" fill="#fbfbfb" fill-rule="evenodd"></path><path id="path2" d="M144.231 66.797 C 144.231 67.549,144.312 67.856,144.410 67.480 C 144.508 67.104,144.508 66.489,144.410 66.113 C 144.312 65.737,144.231 66.045,144.231 66.797 M124.126 89.339 C 124.612 89.432,125.315 89.429,125.688 89.331 C 126.062 89.233,125.664 89.157,124.805 89.161 C 123.945 89.165,123.640 89.245,124.126 89.339 M110.327 211.816 L 109.180 213.086 110.449 211.939 C 111.633 210.869,111.898 210.547,111.597 210.547 C 111.529 210.547,110.958 211.118,110.327 211.816 M78.997 257.031 C 78.997 257.783,79.077 258.091,79.176 257.715 C 79.274 257.339,79.274 256.724,79.176 256.348 C 79.077 255.972,78.997 256.279,78.997 257.031 M220.020 287.379 C 220.396 287.477,221.011 287.477,221.387 287.379 C 221.763 287.280,221.455 287.200,220.703 287.200 C 219.951 287.200,219.644 287.280,220.020 287.379 M125.542 293.555 C 125.543 296.348,125.605 297.439,125.681 295.980 C 125.756 294.521,125.755 292.236,125.679 290.902 C 125.603 289.568,125.542 290.762,125.542 293.555 M156.401 293.359 C 156.401 296.045,156.463 297.144,156.539 295.801 C 156.615 294.458,156.615 292.261,156.539 290.918 C 156.463 289.575,156.401 290.674,156.401 293.359 M246.981 303.516 C 246.981 304.482,247.058 304.878,247.151 304.395 C 247.244 303.911,247.244 303.120,247.151 302.637 C 247.058 302.153,246.981 302.549,246.981 303.516 M227.129 316.602 C 227.129 324.121,227.182 327.142,227.246 323.315 C 227.310 319.487,227.310 313.335,227.245 309.643 C 227.181 305.951,227.129 309.082,227.129 316.602 M238.848 316.992 C 238.848 324.512,238.900 327.533,238.964 323.705 C 239.028 319.878,239.028 313.726,238.964 310.033 C 238.900 306.341,238.848 309.473,238.848 316.992 M119.668 312.891 C 119.668 314.717,119.735 315.464,119.817 314.551 C 119.900 313.638,119.900 312.144,119.817 311.230 C 119.735 310.317,119.668 311.064,119.668 312.891 M259.473 314.733 C 260.063 314.822,261.030 314.822,261.621 314.733 C 262.212 314.643,261.729 314.570,260.547 314.570 C 259.365 314.570,258.882 314.643,259.473 314.733 M53.277 327.930 C 53.277 330.723,53.340 331.814,53.415 330.355 C 53.490 328.896,53.490 326.611,53.414 325.277 C 53.338 323.943,53.276 325.137,53.277 327.930 M348.199 341.211 C 348.199 344.004,348.262 345.095,348.337 343.636 C 348.412 342.177,348.412 339.892,348.336 338.558 C 348.260 337.224,348.198 338.418,348.199 341.211 M53.253 343.555 C 53.255 345.059,53.326 345.626,53.410 344.816 C 53.495 344.005,53.493 342.775,53.407 342.081 C 53.321 341.388,53.251 342.051,53.253 343.555 M162.221 344.336 C 162.224 345.410,162.300 345.803,162.390 345.209 C 162.479 344.616,162.477 343.737,162.384 343.256 C 162.292 342.776,162.218 343.262,162.221 344.336 " stroke="none" fill="#ca9895" fill-rule="evenodd"></path><path id="path3" d="M53.268 337.305 C 53.269 339.453,53.334 340.282,53.413 339.147 C 53.493 338.012,53.492 336.254,53.412 335.241 C 53.331 334.228,53.267 335.156,53.268 337.305 " stroke="none" fill="#c47c74" fill-rule="evenodd"></path><path id="path4" d="M108.294 289.844 C 108.294 290.596,108.374 290.903,108.472 290.527 C 108.571 290.151,108.571 289.536,108.472 289.160 C 108.374 288.784,108.294 289.092,108.294 289.844 M196.200 290.234 C 196.200 291.201,196.276 291.597,196.369 291.113 C 196.463 290.630,196.463 289.839,196.369 289.355 C 196.276 288.872,196.200 289.268,196.200 290.234 M315.366 291.406 C 315.366 293.018,315.435 293.677,315.519 292.871 C 315.603 292.065,315.603 290.747,315.519 289.941 C 315.435 289.136,315.366 289.795,315.366 291.406 M196.222 294.727 C 196.224 296.230,196.294 296.798,196.379 295.987 C 196.463 295.177,196.462 293.946,196.376 293.253 C 196.289 292.560,196.220 293.223,196.222 294.727 M284.503 295.508 C 284.505 297.012,284.576 297.579,284.660 296.769 C 284.745 295.958,284.743 294.728,284.657 294.034 C 284.571 293.341,284.501 294.004,284.503 295.508 M246.981 299.609 C 246.981 300.576,247.058 300.972,247.151 300.488 C 247.244 300.005,247.244 299.214,247.151 298.730 C 247.058 298.247,246.981 298.643,246.981 299.609 M268.491 305.859 C 268.491 307.471,268.560 308.130,268.644 307.324 C 268.728 306.519,268.728 305.200,268.644 304.395 C 268.560 303.589,268.491 304.248,268.491 305.859 " stroke="none" fill="#b87474" fill-rule="evenodd"></path></g></svg>